<svg xmlns="http://www.w3.org/2000/svg" viewBox="0 0 478.51 705.12"><defs><style>.cls-1{font-size:152.06px;font-family:PoiretOne-Regular, Poiret One;}.cls-1,.cls-2{fill:#99b3bd;}</style></defs><title>logo_text_large_bottom_99B3BD</title><g id="Layer_2" data-name="Layer 2"><g id="_99B3BD" data-name="99B3BD"><text class="cls-1" transform="translate(23.71 673.49)">qbee.io</text><path class="cls-2" d="M238.06,0,0,137.44V412.33L238.06,549.77,476.11,412.33V137.44ZM465.83,406.39,238.06,537.9,10.28,406.39v-263L238.06,11.87,465.83,143.38Z"/><path class="cls-2" d="M192.75,138,143.06,166.7v57.38l49.69,28.69,49.69-28.69V166.7ZM236,220.35l-43.23,25-43.24-25V170.43l43.24-25,43.23,25Z"/><polygon class="cls-2" points="225.36 214.22 192.75 233.05 160.13 214.22 160.13 176.56 192.75 157.73 225.36 176.56 225.36 214.22"/><path class="cls-2" d="M239.17,218.58l-49.69,28.69v57.39l49.69,28.69,49.7-28.69V247.27Zm43.24,82.35-43.24,25-43.23-25V251l43.23-25,43.24,25Z"/><polygon class="cls-2" points="271.79 294.79 239.17 313.62 206.56 294.79 206.56 257.13 239.17 238.31 271.79 257.13 271.79 294.79"/><path class="cls-2" d="M146.24,218.58,96.55,247.27v57.39l49.69,28.69,49.7-28.69V247.27Zm43.24,82.35-43.24,25-43.23-25V251l43.23-25,43.24,25Z"/><polygon class="cls-2" points="178.86 295.01 146.24 313.84 113.63 295.01 113.63 257.35 146.24 238.52 178.86 257.35 178.86 295.01"/><path class="cls-2" d="M192.75,299.15l-49.69,28.69v57.39l49.69,28.69,49.69-28.69V327.84ZM236,381.5l-43.23,25-43.24-25V331.57l43.24-25,43.23,25Z"/><polygon class="cls-2" points="225.36 375.1 192.75 393.93 160.14 375.1 160.14 337.44 192.75 318.61 225.36 337.44 225.36 375.1"/><path class="cls-2" d="M285.55,299.15l-49.69,28.69v57.39l49.69,28.69,49.7-28.69V327.84Zm43.24,82.35-43.24,25-43.23-25V331.57l43.23-25,43.24,25Z"/><polygon class="cls-2" points="318.04 374.84 285.42 393.67 252.81 374.84 252.81 337.18 285.42 318.35 318.04 337.18 318.04 374.84"/><path class="cls-2" d="M332.1,218.58l-49.69,28.69v57.39l49.69,28.69,49.69-28.69V247.27Zm43.23,82.35-43.23,25-43.23-25V251l43.23-25,43.23,25Z"/><polygon class="cls-2" points="364.71 294.79 332.1 313.62 299.49 294.79 299.49 257.13 332.1 238.31 364.71 257.13 364.71 294.79"/></g></g></svg>